<svg width="16" height="16" viewBox="0 0 16 16" fill="none" xmlns="http://www.w3.org/2000/svg">
<path d="M14.667 7.99967C14.667 4.31967 11.6803 1.33301 8.00033 1.33301C4.32032 1.33301 1.33366 4.31967 1.33366 7.99967C1.33366 11.6797 4.32032 14.6663 8.00032 14.6663C11.6803 14.6663 14.667 11.6797 14.667 7.99967ZM7.50032 10.333L7.50032 6.87301L6.35366 8.01967C6.16032 8.21301 5.84033 8.21301 5.64699 8.01967C5.54699 7.91967 5.50032 7.79301 5.50032 7.66634C5.50032 7.53967 5.54699 7.41301 5.64699 7.31301L7.64699 5.31301C7.84033 5.11967 8.16032 5.11967 8.35366 5.31301L10.3537 7.31301C10.547 7.50634 10.547 7.82634 10.3537 8.01967C10.1603 8.21301 9.84033 8.21301 9.64699 8.01967L8.50032 6.87301L8.50032 10.333C8.50032 10.6063 8.27366 10.833 8.00032 10.833C7.72699 10.833 7.50032 10.6063 7.50032 10.333Z" fill="#77D15C"/>
</svg>
