<svg width="16" height="16" viewBox="0 0 16 16" fill="none" xmlns="http://www.w3.org/2000/svg">
<path d="M1.33301 8.00033C1.33301 11.6803 4.31967 14.667 7.99967 14.667C11.6797 14.667 14.6663 11.6803 14.6663 8.00033C14.6663 4.32033 11.6797 1.33366 7.99968 1.33366C4.31968 1.33366 1.33301 4.32032 1.33301 8.00033ZM8.49968 5.66699L8.49968 9.12699L9.64634 7.98033C9.83968 7.78699 10.1597 7.78699 10.353 7.98033C10.453 8.08033 10.4997 8.20699 10.4997 8.33366C10.4997 8.46033 10.453 8.58699 10.353 8.68699L8.35301 10.687C8.15967 10.8803 7.83968 10.8803 7.64634 10.687L5.64634 8.68699C5.45301 8.49366 5.45301 8.17366 5.64634 7.98033C5.83968 7.78699 6.15967 7.78699 6.35301 7.98033L7.49968 9.12699L7.49968 5.66699C7.49968 5.39366 7.72634 5.16699 7.99968 5.16699C8.27301 5.16699 8.49968 5.39366 8.49968 5.66699Z" fill="#FFC917"/>
</svg>
