<svg xmlns="http://www.w3.org/2000/svg" xmlns:svgjs="http://svgjs.com/svgjs" xmlns:xlink="http://www.w3.org/1999/xlink" width="288" height="288"><svg xmlns="http://www.w3.org/2000/svg" width="288" height="288" enable-background="new 0 0 16 16" viewBox="0 0 16 16"><path fill="#508eef" d="M14.7,8c0-3.7-3-6.7-6.7-6.6c-3.7,0-6.7,3-6.6,6.7c0,3.7,3,6.7,6.7,6.6C11.7,14.6,14.7,11.6,14.7,8z M7.5,10.3	l0-3.5L6.4,8C6.2,8.2,5.8,8.2,5.6,8C5.5,7.9,5.5,7.8,5.5,7.7c0-0.1,0-0.3,0.1-0.4l2-2c0.2-0.2,0.5-0.2,0.7,0l2,2
	c0.2,0.2,0.2,0.5,0,0.7c-0.2,0.2-0.5,0.2-0.7,0L8.5,6.9l0,3.5c0,0.3-0.2,0.5-0.5,0.5C7.7,10.8,7.5,10.6,7.5,10.3z" class="colorffc917 svgShape"/></svg></svg>