<svg width="16" height="16" viewBox="0 0 16 16" fill="none" xmlns="http://www.w3.org/2000/svg">
<path d="M14.6667 3.23333V11.16C14.6667 11.8067 14.14 12.4 13.4933 12.48L13.2867 12.5067C12.1933 12.6533 10.6533 13.1067 9.41333 13.6267C8.98 13.8067 8.5 13.48 8.5 13.0067V3.73333C8.5 3.48667 8.64 3.26 8.86 3.14C10.08 2.48 11.9267 1.89333 13.18 1.78667H13.22C14.02 1.78667 14.6667 2.43333 14.6667 3.23333Z" fill="white"/>
<path d="M7.13999 3.14C5.91999 2.48 4.07333 1.89333 2.81999 1.78667H2.77333C1.97333 1.78667 1.32666 2.43333 1.32666 3.23333V11.16C1.32666 11.8067 1.85333 12.4 2.49999 12.48L2.70666 12.5067C3.79999 12.6533 5.33999 13.1067 6.57999 13.6267C7.01333 13.8067 7.49333 13.48 7.49333 13.0067V3.73333C7.49333 3.48 7.35999 3.26 7.13999 3.14ZM3.33333 5.16H4.83333C5.10666 5.16 5.33333 5.38667 5.33333 5.66C5.33333 5.94 5.10666 6.16 4.83333 6.16H3.33333C3.05999 6.16 2.83333 5.94 2.83333 5.66C2.83333 5.38667 3.05999 5.16 3.33333 5.16ZM5.33333 8.16H3.33333C3.05999 8.16 2.83333 7.94 2.83333 7.66C2.83333 7.38667 3.05999 7.16 3.33333 7.16H5.33333C5.60666 7.16 5.83333 7.38667 5.83333 7.66C5.83333 7.94 5.60666 8.16 5.33333 8.16Z" fill="white"/>
</svg>
