<svg width="16" height="16" viewBox="0 0 16 16" fill="none" xmlns="http://www.w3.org/2000/svg">
<path d="M13.4735 5.21329L8.34014 8.18663C8.13348 8.30663 7.87348 8.30663 7.66014 8.18663L2.52681 5.21329C2.16014 4.99996 2.06681 4.49996 2.34681 4.18663C2.54014 3.96663 2.76014 3.78663 2.99348 3.65996L6.60681 1.65996C7.38014 1.22663 8.63348 1.22663 9.40681 1.65996L13.0201 3.65996C13.2535 3.78663 13.4735 3.97329 13.6668 4.18663C13.9335 4.49996 13.8401 4.99996 13.4735 5.21329Z" fill="#FF9C7C"/>
<path d="M7.61966 9.42626V13.9729C7.61966 14.4796 7.10633 14.8129 6.65299 14.5929C5.27966 13.9196 2.96633 12.6596 2.96633 12.6596C2.15299 12.1996 1.48633 11.0396 1.48633 10.0863V6.64626C1.48633 6.11959 2.03966 5.78626 2.49299 6.04626L7.28633 8.82626C7.48633 8.95293 7.61966 9.17959 7.61966 9.42626Z" fill="#FF9C7C"/>
<path d="M8.37988 9.42626V13.9729C8.37988 14.4796 8.89322 14.8129 9.34655 14.5929C10.7199 13.9196 13.0332 12.6596 13.0332 12.6596C13.8465 12.1996 14.5132 11.0396 14.5132 10.0863V6.64626C14.5132 6.11959 13.9599 5.78626 13.5065 6.04626L8.71322 8.82626C8.51322 8.95293 8.37988 9.17959 8.37988 9.42626Z" fill="#FF9C7C"/>
</svg>
