<svg width="16" height="16" viewBox="0 0 16 16" fill="none" xmlns="http://www.w3.org/2000/svg">
<path d="M13.4735 5.21336L8.34014 8.18669C8.13348 8.30669 7.87348 8.30669 7.66014 8.18669L2.52681 5.21336C2.16014 5.00002 2.06681 4.50002 2.34681 4.18669C2.54014 3.96669 2.76014 3.78669 2.99348 3.66002L6.60681 1.66002C7.38014 1.22669 8.63348 1.22669 9.40681 1.66002L13.0201 3.66002C13.2535 3.78669 13.4735 3.97336 13.6668 4.18669C13.9335 4.50002 13.8401 5.00002 13.4735 5.21336Z" fill="white"/>
<path d="M7.62015 9.42669V13.9734C7.62015 14.48 7.10682 14.8134 6.65348 14.5934C5.28015 13.92 2.96682 12.66 2.96682 12.66C2.15348 12.2 1.48682 11.04 1.48682 10.0867V6.64669C1.48682 6.12002 2.04015 5.78669 2.49348 6.04669L7.28682 8.82669C7.48682 8.95335 7.62015 9.18002 7.62015 9.42669Z" fill="white"/>
<path d="M8.37988 9.42669V13.9734C8.37988 14.48 8.89322 14.8134 9.34655 14.5934C10.7199 13.92 13.0332 12.66 13.0332 12.66C13.8465 12.2 14.5132 11.04 14.5132 10.0867V6.64669C14.5132 6.12002 13.9599 5.78669 13.5065 6.04669L8.71322 8.82669C8.51322 8.95335 8.37988 9.18002 8.37988 9.42669Z" fill="white"/>
</svg>
