<svg width="16" height="16" viewBox="0 0 16 16" fill="none" xmlns="http://www.w3.org/2000/svg">
<path d="M14.6666 3.80666V10.1933C14.6666 12.0333 13.1732 13.5267 11.3332 13.5267H4.66655C4.35988 13.5267 4.06655 13.4867 3.77988 13.4067C3.36655 13.2933 3.23322 12.7667 3.53988 12.46L10.6266 5.37333C10.7732 5.22666 10.9932 5.19333 11.1999 5.23333C11.4132 5.27333 11.6466 5.21333 11.8132 5.05333L13.5266 3.33333C14.1532 2.70666 14.6666 2.91333 14.6666 3.80666Z" fill="white"/>
<path d="M9.75992 4.90666L2.77992 11.8867C2.45992 12.2067 1.92659 12.1267 1.71325 11.7267C1.46659 11.2733 1.33325 10.7467 1.33325 10.1933V3.80666C1.33325 2.91333 1.84659 2.70666 2.47325 3.33333L4.19325 5.06C4.45325 5.31333 4.87992 5.31333 5.13992 5.06L7.52659 2.66666C7.78659 2.40666 8.21325 2.40666 8.47325 2.66666L9.76659 3.96C10.0199 4.22 10.0199 4.64666 9.75992 4.90666Z" fill="white"/>
</svg>
