<svg width="16" height="16" viewBox="0 0 16 16" fill="none" xmlns="http://www.w3.org/2000/svg">
<path d="M14.1801 6.12003C13.9868 5.81337 13.7801 5.5267 13.5668 5.26003C13.3201 4.9467 12.8535 4.92003 12.5735 5.20003L10.5735 7.20003C10.7201 7.64003 10.7468 8.1467 10.6135 8.67337C10.3801 9.61337 9.62013 10.3734 8.68013 10.6067C8.15346 10.74 7.6468 10.7134 7.2068 10.5667C7.2068 10.5667 6.25346 11.52 5.5668 12.2067C5.23346 12.54 5.34013 13.1267 5.7868 13.3C6.50013 13.5734 7.24013 13.7134 8.00013 13.7134C9.1868 13.7134 10.3401 13.3667 11.3935 12.72C12.4668 12.0534 13.4335 11.0734 14.2135 9.8267C14.8468 8.82003 14.8135 7.1267 14.1801 6.12003Z" fill="white"/>
<path d="M9.3466 6.65326L6.65326 9.3466C6.31326 8.99993 6.09326 8.51993 6.09326 7.99993C6.09326 6.95326 6.94659 6.09326 7.99993 6.09326C8.51993 6.09326 8.99993 6.31326 9.3466 6.65326Z" fill="white"/>
<path d="M12.1668 3.83329L9.90683 6.09329C9.42016 5.59995 8.74683 5.30662 8.00016 5.30662C6.50683 5.30662 5.30683 6.51329 5.30683 7.99995C5.30683 8.74662 5.60683 9.41995 6.0935 9.90662L3.84016 12.1666H3.8335C3.0935 11.5666 2.4135 10.8 1.8335 9.89329C1.16683 8.84662 1.16683 7.14662 1.8335 6.09995C2.60683 4.88662 3.5535 3.93329 4.60683 3.27995C5.66016 2.63995 6.8135 2.28662 8.00016 2.28662C9.48683 2.28662 10.9268 2.83329 12.1668 3.83329Z" fill="white"/>
<path d="M9.90672 8.00005C9.90672 9.04672 9.05339 9.90672 8.00005 9.90672C7.96005 9.90672 7.92672 9.90672 7.88672 9.89339L9.89339 7.88672C9.90672 7.92672 9.90672 7.96005 9.90672 8.00005Z" fill="white"/>
<path d="M14.5131 1.48667C14.3131 1.28667 13.9864 1.28667 13.7864 1.48667L1.48643 13.7933C1.28643 13.9933 1.28643 14.32 1.48643 14.52C1.58643 14.6133 1.71309 14.6667 1.84643 14.6667C1.97976 14.6667 2.10643 14.6133 2.20643 14.5133L14.5131 2.20667C14.7198 2.00667 14.7198 1.68667 14.5131 1.48667Z" fill="white"/>
</svg>
