<svg width="20" height="20" viewBox="0 0 20 20" fill="none" xmlns="http://www.w3.org/2000/svg">
<circle cx="10" cy="10" r="10" fill="#508EEF"/>
<path d="M8.88044 11.168V9.032H9.90044C10.3804 9.032 10.7324 8.908 10.9564 8.66C11.1884 8.404 11.3044 8.092 11.3044 7.724C11.3044 7.46 11.2524 7.232 11.1484 7.04C11.0444 6.84 10.8924 6.688 10.6924 6.584C10.4924 6.48 10.2604 6.428 9.99644 6.428C9.70844 6.428 9.46044 6.488 9.25244 6.608C9.05244 6.728 8.89644 6.888 8.78444 7.088C8.67244 7.288 8.61644 7.52 8.61644 7.784H7.02044C7.02044 7.272 7.13644 6.804 7.36844 6.38C7.60044 5.956 7.94044 5.62 8.38844 5.372C8.83644 5.116 9.38444 4.988 10.0324 4.988C10.6244 4.988 11.1324 5.104 11.5564 5.336C11.9884 5.56 12.3204 5.868 12.5524 6.26C12.7844 6.652 12.9004 7.096 12.9004 7.592V7.736C12.9004 8.224 12.7844 8.66 12.5524 9.044C12.3204 9.428 11.9764 9.732 11.5204 9.956C11.0724 10.172 10.5244 10.288 9.87644 10.304L10.5604 9.68L10.5364 11.168H8.88044ZM8.74844 14V12.224H10.6684V14H8.74844Z" fill="white"/>
</svg>
