<svg width="16" height="16" viewBox="0 0 16 16" fill="none" xmlns="http://www.w3.org/2000/svg">
<path d="M11.2 1.33334H9.46667C7.33333 1.33334 6 2.66668 6 4.80001V7.50001H10.1667C10.44 7.50001 10.6667 7.72668 10.6667 8.00001C10.6667 8.27334 10.44 8.50001 10.1667 8.50001H6V11.2C6 13.3333 7.33333 14.6667 9.46667 14.6667H11.1933C13.3267 14.6667 14.66 13.3333 14.66 11.2V4.80001C14.6667 2.66668 13.3333 1.33334 11.2 1.33334Z" fill="white"/>
<path d="M3.03996 7.50001L4.41996 6.12001C4.51996 6.02001 4.56663 5.89334 4.56663 5.76667C4.56663 5.64001 4.51996 5.50667 4.41996 5.41334C4.22663 5.22001 3.90663 5.22001 3.71329 5.41334L1.47996 7.64667C1.28663 7.84001 1.28663 8.16001 1.47996 8.35334L3.71329 10.5867C3.90663 10.78 4.22663 10.78 4.41996 10.5867C4.61329 10.3933 4.61329 10.0733 4.41996 9.88001L3.03996 8.50001H5.99996V7.50001H3.03996Z" fill="white"/>
</svg>
