<svg width="16" height="16" viewBox="0 0 16 16" fill="none" xmlns="http://www.w3.org/2000/svg">
<path d="M11.3335 2.33331H4.66683C2.66683 2.33331 1.3335 3.33331 1.3335 5.66665V10.3333C1.3335 12.6666 2.66683 13.6666 4.66683 13.6666H11.3335C13.3335 13.6666 14.6668 12.6666 14.6668 10.3333V5.66665C14.6668 3.33331 13.3335 2.33331 11.3335 2.33331ZM4.16683 9.66665C4.16683 9.93998 3.94016 10.1666 3.66683 10.1666C3.3935 10.1666 3.16683 9.93998 3.16683 9.66665V6.33331C3.16683 6.05998 3.3935 5.83331 3.66683 5.83331C3.94016 5.83331 4.16683 6.05998 4.16683 6.33331V9.66665ZM8.00016 9.99998C6.8935 9.99998 6.00016 9.10665 6.00016 7.99998C6.00016 6.89331 6.8935 5.99998 8.00016 5.99998C9.10683 5.99998 10.0002 6.89331 10.0002 7.99998C10.0002 9.10665 9.10683 9.99998 8.00016 9.99998ZM12.8335 9.66665C12.8335 9.93998 12.6068 10.1666 12.3335 10.1666C12.0602 10.1666 11.8335 9.93998 11.8335 9.66665V6.33331C11.8335 6.05998 12.0602 5.83331 12.3335 5.83331C12.6068 5.83331 12.8335 6.05998 12.8335 6.33331V9.66665Z" fill="white"/>
</svg>
