<svg width="16" height="16" viewBox="0 0 16 16" fill="none" xmlns="http://www.w3.org/2000/svg">
<path d="M11.7068 1.33331H4.2735C2.6535 1.33331 1.3335 2.65331 1.3335 4.27331V8.60665V8.73998C1.3335 10.3666 2.6535 11.68 4.2735 11.68H6.8335C7.20016 11.68 7.50016 11.98 7.50016 12.3466V12.9933C7.50016 13.36 7.20016 13.66 6.8335 13.66H5.22016C4.94683 13.66 4.72016 13.8866 4.72016 14.16C4.72016 14.4333 4.94016 14.6666 5.22016 14.6666H10.7868C11.0602 14.6666 11.2868 14.44 11.2868 14.1666C11.2868 13.8933 11.0602 13.6666 10.7868 13.6666H9.1735C8.80683 13.6666 8.50683 13.3666 8.50683 13V12.3533C8.50683 11.9866 8.80683 11.6866 9.1735 11.6866H11.7135C13.3402 11.6866 14.6535 10.3666 14.6535 8.74665V8.61331V4.27998C14.6468 2.65331 13.3268 1.33331 11.7068 1.33331Z" fill="white"/>
</svg>
