<svg width="16" height="16" viewBox="0 0 16 16" fill="none" xmlns="http://www.w3.org/2000/svg">
<path d="M4 8.66663C4 9.7712 3.10457 10.6666 2 10.6666C0.89543 10.6666 0 9.7712 0 8.66663C0 7.56206 0.89543 6.66663 2 6.66663C3.10457 6.66663 4 7.56206 4 8.66663Z" fill="#D9D9D9"/>
<path d="M10 8.66663C10 9.7712 9.10457 10.6666 8 10.6666C6.89543 10.6666 6 9.7712 6 8.66663C6 7.56206 6.89543 6.66663 8 6.66663C9.10457 6.66663 10 7.56206 10 8.66663Z" fill="#D9D9D9"/>
<path d="M16 8.66663C16 9.7712 15.1046 10.6666 14 10.6666C12.8954 10.6666 12 9.7712 12 8.66663C12 7.56206 12.8954 6.66663 14 6.66663C15.1046 6.66663 16 7.56206 16 8.66663Z" fill="#D9D9D9"/>
</svg>
