<svg width="56" height="56" viewBox="0 0 56 56" fill="none" xmlns="http://www.w3.org/2000/svg">
<rect opacity="0.1" width="56" height="56" fill="#66CAEC"/>
<path d="M35.3733 22.36C35.28 22.3467 35.1867 22.3467 35.0933 22.36C33.0267 22.2933 31.3867 20.6 31.3867 18.52C31.3867 16.4 33.1067 14.6667 35.24 14.6667C37.36 14.6667 39.0933 16.3867 39.0933 18.52C39.08 20.6 37.44 22.2933 35.3733 22.36Z" fill="url(#paint0_linear_535_4938)"/>
<path d="M39.72 31.6C38.2267 32.6 36.1333 32.9733 34.2 32.72C34.7067 31.6267 34.9733 30.4133 34.9867 29.1333C34.9867 27.8 34.6933 26.5333 34.1333 25.4267C36.1067 25.16 38.2 25.5333 39.7067 26.5333C41.8133 27.92 41.8133 30.2 39.72 31.6Z" fill="url(#paint1_linear_535_4938)"/>
<path d="M20.5867 22.36C20.68 22.3467 20.7733 22.3467 20.8667 22.36C22.9333 22.2933 24.5733 20.6 24.5733 18.52C24.5733 16.4 22.8533 14.6667 20.72 14.6667C18.6 14.6667 16.8667 16.3867 16.8667 18.52C16.88 20.6 18.52 22.2933 20.5867 22.36Z" fill="url(#paint2_linear_535_4938)"/>
<path d="M20.7333 29.1333C20.7333 30.4267 21.0133 31.6533 21.52 32.76C19.64 32.96 17.68 32.56 16.24 31.6133C14.1333 30.2133 14.1333 27.9333 16.24 26.5333C17.6667 25.5733 19.68 25.1867 21.5733 25.4C21.0267 26.52 20.7333 27.7867 20.7333 29.1333Z" fill="url(#paint3_linear_535_4938)"/>
<path d="M28.16 33.16C28.0533 33.1467 27.9333 33.1467 27.8133 33.16C25.36 33.08 23.4 31.0667 23.4 28.5867C23.4 26.0533 25.44 24 27.9867 24C30.52 24 32.5733 26.0533 32.5733 28.5867C32.5733 31.0667 30.6267 33.08 28.16 33.16Z" fill="url(#paint4_linear_535_4938)"/>
<path d="M23.8267 35.92C21.8133 37.2667 21.8133 39.48 23.8267 40.8133C26.12 42.3467 29.88 42.3467 32.1733 40.8133C34.1867 39.4667 34.1867 37.2533 32.1733 35.92C29.8933 34.3867 26.1333 34.3867 23.8267 35.92Z" fill="url(#paint5_linear_535_4938)"/>
<defs>
<linearGradient id="paint0_linear_535_4938" x1="37.3213" y1="16.5868" x2="33.482" y2="20.7368" gradientUnits="userSpaceOnUse">
<stop stop-color="#B0EFEF"/>
<stop offset="0.21" stop-color="#ABEDEF"/>
<stop offset="0.46" stop-color="#9DE5EE"/>
<stop offset="0.73" stop-color="#85D9ED"/>
<stop offset="1" stop-color="#66CAEC"/>
</linearGradient>
<linearGradient id="paint1_linear_535_4938" x1="39.6431" y1="27.2035" x2="35.9146" y2="31.0657" gradientUnits="userSpaceOnUse">
<stop stop-color="#B0EFEF"/>
<stop offset="0.21" stop-color="#ABEDEF"/>
<stop offset="0.46" stop-color="#9DE5EE"/>
<stop offset="0.73" stop-color="#85D9ED"/>
<stop offset="1" stop-color="#66CAEC"/>
</linearGradient>
<linearGradient id="paint2_linear_535_4938" x1="22.8013" y1="16.5868" x2="18.962" y2="20.7368" gradientUnits="userSpaceOnUse">
<stop stop-color="#B0EFEF"/>
<stop offset="0.21" stop-color="#ABEDEF"/>
<stop offset="0.46" stop-color="#9DE5EE"/>
<stop offset="0.73" stop-color="#85D9ED"/>
<stop offset="1" stop-color="#66CAEC"/>
</linearGradient>
<linearGradient id="paint3_linear_535_4938" x1="19.9837" y1="27.2067" x2="16.246" y2="30.9407" gradientUnits="userSpaceOnUse">
<stop stop-color="#B0EFEF"/>
<stop offset="0.21" stop-color="#ABEDEF"/>
<stop offset="0.46" stop-color="#9DE5EE"/>
<stop offset="0.73" stop-color="#85D9ED"/>
<stop offset="1" stop-color="#66CAEC"/>
</linearGradient>
<linearGradient id="paint4_linear_535_4938" x1="30.464" y1="26.2862" x2="25.8928" y2="31.2261" gradientUnits="userSpaceOnUse">
<stop stop-color="#B0EFEF"/>
<stop offset="0.21" stop-color="#ABEDEF"/>
<stop offset="0.46" stop-color="#9DE5EE"/>
<stop offset="0.73" stop-color="#85D9ED"/>
<stop offset="1" stop-color="#66CAEC"/>
</linearGradient>
<linearGradient id="paint5_linear_535_4938" x1="31.0697" y1="36.5654" x2="27.9272" y2="41.9236" gradientUnits="userSpaceOnUse">
<stop stop-color="#B0EFEF"/>
<stop offset="0.21" stop-color="#ABEDEF"/>
<stop offset="0.46" stop-color="#9DE5EE"/>
<stop offset="0.73" stop-color="#85D9ED"/>
<stop offset="1" stop-color="#66CAEC"/>
</linearGradient>
</defs>
</svg>
