<svg width="56" height="56" viewBox="0 0 56 56" fill="none" xmlns="http://www.w3.org/2000/svg">
<rect width="56" height="56" fill="#1F212F"/>
<g opacity="0.5">
<path d="M35.3734 22.36C35.28 22.3467 35.1867 22.3467 35.0934 22.36C33.0267 22.2933 31.3867 20.6 31.3867 18.52C31.3867 16.4 33.1067 14.6667 35.2401 14.6667C37.3601 14.6667 39.0934 16.3867 39.0934 18.52C39.0801 20.6 37.44 22.2933 35.3734 22.36Z" fill="white"/>
<path d="M39.72 31.6C38.2266 32.6 36.1333 32.9733 34.2 32.72C34.7066 31.6267 34.9733 30.4133 34.9866 29.1333C34.9866 27.8 34.6933 26.5333 34.1333 25.4267C36.1066 25.16 38.2 25.5333 39.7066 26.5333C41.8133 27.92 41.8133 30.2 39.72 31.6Z" fill="white"/>
<path d="M20.5867 22.36C20.68 22.3467 20.7734 22.3467 20.8667 22.36C22.9334 22.2933 24.5734 20.6 24.5734 18.52C24.5734 16.4 22.8534 14.6667 20.72 14.6667C18.6 14.6667 16.8667 16.3867 16.8667 18.52C16.88 20.6 18.52 22.2933 20.5867 22.36Z" fill="white"/>
<path d="M20.7332 29.1333C20.7332 30.4267 21.0132 31.6533 21.5199 32.76C19.6399 32.96 17.6799 32.56 16.2399 31.6133C14.1332 30.2133 14.1332 27.9333 16.2399 26.5333C17.6666 25.5733 19.6799 25.1867 21.5732 25.4C21.0266 26.52 20.7332 27.7867 20.7332 29.1333Z" fill="white"/>
<path d="M28.1599 33.16C28.0532 33.1467 27.9332 33.1467 27.8132 33.16C25.3599 33.08 23.3999 31.0667 23.3999 28.5867C23.3999 26.0533 25.4399 24 27.9866 24C30.5199 24 32.5732 26.0533 32.5732 28.5867C32.5732 31.0667 30.6266 33.08 28.1599 33.16Z" fill="white"/>
<path d="M23.8267 35.92C21.8133 37.2667 21.8133 39.48 23.8267 40.8133C26.12 42.3467 29.88 42.3467 32.1733 40.8133C34.1867 39.4667 34.1867 37.2533 32.1733 35.92C29.8933 34.3867 26.1333 34.3867 23.8267 35.92Z" fill="white"/>
</g>
</svg>
