<svg width="32" height="32" viewBox="0 0 32 32" fill="none" xmlns="http://www.w3.org/2000/svg">
<mask id="mask0_752_7456" style="mask-type:alpha" maskUnits="userSpaceOnUse" x="0" y="0" width="32" height="32">
<rect width="32" height="32" rx="4" fill="#2A2B3D"/>
</mask>
<g mask="url(#mask0_752_7456)">
<g opacity="0.4">
<path d="M15.4004 10.6C15.4004 10.2686 15.669 10 16.0004 10C16.3318 10 16.6004 10.2686 16.6004 10.6V21.4C16.6004 21.7314 16.3318 22 16.0004 22C15.669 22 15.4004 21.7314 15.4004 21.4V10.6Z" fill="white"/>
<path d="M21.4 15.4004C21.7314 15.4004 22 15.669 22 16.0004C22 16.3318 21.7314 16.6004 21.4 16.6004L10.6 16.6004C10.2686 16.6004 10 16.3318 10 16.0004C10 15.669 10.2686 15.4004 10.6 15.4004L21.4 15.4004Z" fill="white"/>
</g>
</g>
</svg>
