<svg width="16" height="16" viewBox="0 0 16 16" fill="none" xmlns="http://www.w3.org/2000/svg">
<path d="M8.28148 12.9999C6.95641 13.0051 5.86621 12.7719 4.8705 12.1768C4.31336 11.8515 3.84979 11.3886 3.52453 10.8327C2.8811 9.7266 3.07453 8.46384 4.01796 7.59823C4.18806 7.44274 4.3642 7.29366 4.52787 7.13176C4.69155 6.96985 4.86688 6.79994 4.77479 6.54666C4.6638 6.2433 4.49329 5.98321 4.13739 5.90867C3.63311 5.80288 3.12882 5.69507 2.62654 5.57886C2.51027 5.54938 2.3992 5.50235 2.29719 5.4394C2.09612 5.31917 1.9992 5.13603 2 4.90119C2 4.69521 2.04665 4.6407 2.24974 4.59382C2.66434 4.49804 3.07614 4.38623 3.49316 4.30488C3.75576 4.25318 3.88042 4.09769 3.96769 3.86405C4.27774 3.03571 4.83712 2.4438 5.68524 2.15727C6.56634 1.85951 7.40883 1.98895 8.16646 2.50832C8.87021 2.98922 9.1296 3.71057 9.09622 4.54212C9.07732 5.01741 8.91485 5.45142 8.66311 5.85217C8.56551 5.99732 8.4801 6.15026 8.40775 6.30942C8.29274 6.58995 8.39126 6.79713 8.68523 6.87568C8.9136 6.93236 9.14608 6.97108 9.38053 6.99149C10.5769 7.11813 11.6892 6.83921 12.7416 6.28257C12.9274 6.18439 13.1088 6.07659 13.2982 5.98562C13.5906 5.84495 13.7193 5.89745 13.784 6.21324C13.8556 6.5651 13.897 6.92337 13.9449 7.27923C14.0757 8.18384 13.9727 9.10677 13.6457 9.96064C13.1792 11.1801 12.2957 11.9952 11.0989 12.4854C10.1398 12.8781 9.13 12.9819 8.28148 12.9999Z" fill="white"/>
</svg>
