<svg width="16" height="16" viewBox="0 0 16 16" fill="none" xmlns="http://www.w3.org/2000/svg">
<path d="M13.7186 1.00491L12.1026 1.26617C10.5421 1.46101 9.10127 2.2016 8.03633 3.35632L6.22204 5.33822L3.75309 5.19265C3.68772 5.18913 3.62257 5.2028 3.56415 5.23227C3.50572 5.26174 3.45607 5.306 3.42015 5.36062L2.17446 7.22682C2.14408 7.27191 2.12392 7.32309 2.11542 7.37677C2.10692 7.43045 2.11026 7.48533 2.12523 7.53758C2.14019 7.58983 2.16642 7.63818 2.20206 7.67928C2.2377 7.72037 2.28189 7.7532 2.33157 7.77548L4.08602 8.57048L6.7682 11.2466L7.56873 13.0008C7.59114 13.0499 7.62392 13.0934 7.66482 13.1286C7.70572 13.1638 7.75377 13.1897 7.80566 13.2046C7.85755 13.2195 7.91206 13.223 7.96544 13.2149C8.01882 13.2068 8.06981 13.1872 8.1149 13.1576L9.98531 11.9072C10.0399 11.8706 10.0839 11.8203 10.1128 11.7613C10.1417 11.7024 10.1545 11.6368 10.1499 11.5713L9.98531 9.10795L11.9642 7.30519C13.1215 6.24266 13.8638 4.80512 14.0591 3.24808L14.3209 1.63568C14.3365 1.55207 14.332 1.46597 14.3077 1.38445C14.2834 1.30293 14.2401 1.22831 14.1813 1.16674C14.1226 1.10516 14.05 1.05839 13.9695 1.03026C13.8891 1.00212 13.8031 0.993442 13.7186 1.00491ZM10.726 6.17801C10.5691 6.33475 10.3691 6.44153 10.1514 6.48485C9.93367 6.52816 9.70796 6.50607 9.50281 6.42137C9.29767 6.33666 9.1223 6.19313 8.99893 6.00897C8.87555 5.8248 8.80971 5.60826 8.80971 5.38675C8.80971 5.16523 8.87555 4.94868 8.99893 4.76451C9.1223 4.58034 9.29767 4.43683 9.50281 4.35212C9.70796 4.26742 9.93367 4.24533 10.1514 4.28864C10.3691 4.33196 10.5691 4.43874 10.726 4.59548C10.9376 4.80394 11.0577 5.08769 11.0598 5.38442C11.0619 5.68115 10.9459 5.96658 10.7372 6.17801H10.726Z" fill="white"/>
<path d="M5.38598 11.9621L3.35265 9.92832C3.32583 9.90164 3.28954 9.88667 3.25172 9.88667C3.21389 9.88667 3.17761 9.90164 3.15079 9.92832C3.04068 10.0348 2.88652 10.1853 2.83514 10.2404C1.7602 11.3443 1.11018 12.7929 1 14.33C2.53672 14.2198 3.98499 13.5696 5.08869 12.4944C5.14374 12.443 5.29423 12.2889 5.40067 12.1787C5.41535 12.1643 5.42673 12.1468 5.43403 12.1275C5.44134 12.1082 5.4444 12.0876 5.44301 12.0671C5.44161 12.0465 5.4358 12.0265 5.42596 12.0084C5.41612 11.9903 5.40248 11.9745 5.38598 11.9621Z" fill="white"/>
</svg>
