<svg width="56" height="56" viewBox="0 0 56 56" fill="none" xmlns="http://www.w3.org/2000/svg">
<rect width="56" height="56" fill="#1F212F"/>
<g opacity="0.5">
<path d="M28.0001 14.6667C24.5067 14.6667 21.6667 17.5067 21.6667 21C21.6667 24.4267 24.3467 27.2 27.8401 27.32C27.9467 27.3067 28.0534 27.3067 28.1334 27.32C28.1601 27.32 28.1734 27.32 28.2001 27.32C28.2134 27.32 28.2134 27.32 28.2267 27.32C31.6401 27.2 34.3201 24.4267 34.3334 21C34.3334 17.5067 31.4934 14.6667 28.0001 14.6667Z" fill="white"/>
<path d="M34.7733 30.8667C31.0533 28.3867 24.9866 28.3867 21.2399 30.8667C19.5466 32 18.6133 33.5333 18.6133 35.1733C18.6133 36.8133 19.5466 38.3333 21.2266 39.4533C23.0933 40.7067 25.5466 41.3333 27.9999 41.3333C30.4533 41.3333 32.9066 40.7067 34.7733 39.4533C36.4533 38.32 37.3866 36.8 37.3866 35.1467C37.3733 33.5067 36.4533 31.9867 34.7733 30.8667Z" fill="white"/>
</g>
</svg>
