<svg width="36" height="32" viewBox="0 0 36 32" fill="none" xmlns="http://www.w3.org/2000/svg">
<path d="M7.36995 9.22026C13.2408 3.59325 22.7593 3.59325 28.6301 9.22026L29.3367 9.89748C29.6302 10.1788 29.6302 10.635 29.3367 10.9163L26.9196 13.233C26.7729 13.3737 26.5349 13.3737 26.3881 13.233L25.4158 12.301C21.3202 8.3755 14.6798 8.3755 10.5842 12.301L9.54295 13.2991C9.39617 13.4397 9.15821 13.4397 9.01144 13.2991L6.59443 10.9824C6.30089 10.7011 6.30089 10.2449 6.59443 9.96357L7.36995 9.22026ZM33.6287 14.0113L35.7798 16.0731C36.0734 16.3545 36.0734 16.8106 35.7799 17.092L26.0802 26.389C25.7866 26.6703 25.3107 26.6703 25.0172 26.389C25.0172 26.389 25.0172 26.389 25.0172 26.389L18.1329 19.7906C18.0596 19.7203 17.9406 19.7203 17.8672 19.7906C17.8672 19.7906 17.8672 19.7906 17.8672 19.7906L10.9831 26.389C10.6896 26.6703 10.2136 26.6703 9.9201 26.389C9.92009 26.389 9.92009 26.389 9.92009 26.389L0.220156 17.0919C-0.0733853 16.8105 -0.0733853 16.3544 0.220156 16.073L2.37131 14.0112C2.66485 13.7298 3.14077 13.7298 3.43431 14.0112L10.3186 20.6096C10.392 20.68 10.511 20.68 10.5844 20.6096C10.5844 20.6096 10.5844 20.6096 10.5844 20.6096L17.4684 14.0112C17.7619 13.7298 18.2378 13.7298 18.5314 14.0112C18.5314 14.0112 18.5314 14.0112 18.5314 14.0112L25.4157 20.6096C25.4891 20.68 25.6081 20.68 25.6815 20.6096L32.5657 14.0113C32.8592 13.73 33.3352 13.73 33.6287 14.0113Z" fill="#3B99FC"/>
</svg>
